<svg height="43" viewBox="0 0 222 43" width="222" xmlns="http://www.w3.org/2000/svg" xmlns:xlink="http://www.w3.org/1999/xlink"><defs><linearGradient id="a" x1="50%" x2="50%" y1="122.437977%" y2="7.040451%"><stop offset="0" stop-color="#0b789b"/><stop offset="1" stop-color="#0d84ab"/></linearGradient><path id="b" d="m60.1160001 26v-10.688h3.184c3.008 0 5.28 1.616 5.28 5.312 0 3.68-2.272 5.376-5.28 5.376zm1.344-9.536v8.384h1.84c1.952 0 3.872-1.024 3.872-4.224 0-3.216-1.92-4.16-3.872-4.16zm10.928-.896c0 .544-.4.96-.944.96s-.944-.416-.944-.96.4-.96.944-.96.944.416.944.96zm-1.6 2.432h1.312v8h-1.312zm3.328 5.984 1.2-.336c.128.912.944 1.536 1.968 1.536 1.04 0 1.744-.416 1.744-1.264 0-2.112-4.56-.56-4.56-3.712 0-1.504 1.2-2.4 2.8-2.4 1.744 0 2.736.768 2.896 2.224l-1.232.176c-.08-.848-.608-1.392-1.664-1.392-.976 0-1.568.48-1.568 1.296 0 2.096 4.56.464 4.56 3.712 0 1.52-1.28 2.368-2.976 2.368-1.664 0-2.928-.8-3.168-2.208zm7.744-1.984c0-2.624 1.408-4.192 3.568-4.192 1.632 0 2.768.992 2.928 2.448l-1.2.224c-.08-.88-.688-1.632-1.728-1.632-1.488 0-2.24 1.28-2.24 3.152s.752 3.152 2.24 3.152c1.04 0 1.648-.736 1.728-1.664l1.2.224c-.224 1.552-1.296 2.48-2.928 2.48-2.16 0-3.568-1.552-3.568-4.192zm15.184 0c0 2.688-1.456 4.192-3.584 4.192s-3.584-1.504-3.584-4.192 1.456-4.192 3.584-4.192 3.584 1.504 3.584 4.192zm-1.328 0c0-2.064-.784-3.168-2.256-3.168s-2.256 1.104-2.256 3.168.784 3.168 2.256 3.168 2.256-1.104 2.256-3.168zm4.5439999-4 .16 1.552c.448-1.104 1.424-1.744 2.688-1.744 1.456 0 2.464.96 2.464 2.576v5.616h-1.312v-5.344c0-1.024-.496-1.696-1.568-1.696-1.136 0-2.096.656-2.096 2.4v4.64h-1.3119999v-8zm9.024 0 .16 1.552c.448-1.104 1.424-1.744 2.688-1.744 1.456 0 2.464.96 2.464 2.576v5.616h-1.312v-5.344c0-1.024-.496-1.696-1.568-1.696-1.136 0-2.096.656-2.096 2.4v4.64h-1.312v-8zm11.04 7.152c.96 0 1.648-.448 1.888-1.456l1.136.32c-.368 1.552-1.6 2.176-3.024 2.176-2.192 0-3.568-1.456-3.568-4.16 0-2.608 1.408-4.224 3.568-4.224 2 0 3.104 1.456 3.104 3.36 0 .464-.08.864-.16 1.072h-5.248c.064 1.792.864 2.912 2.304 2.912zm-2.272-3.872h4.064c.016-.144.016-.304.016-.416 0-1.12-.64-2.048-1.84-2.048-1.28 0-2.064.912-2.24 2.464zm7.104.72c0-2.624 1.408-4.192 3.568-4.192 1.632 0 2.768.992 2.928 2.448l-1.2.224c-.08-.88-.688-1.632-1.728-1.632-1.488 0-2.24 1.28-2.24 3.152s.752 3.152 2.24 3.152c1.04 0 1.648-.736 1.728-1.664l1.2.224c-.224 1.552-1.296 2.48-2.928 2.48-2.16 0-3.568-1.552-3.568-4.192zm12.544 2.672.24 1.04c-.464.288-1.088.48-1.648.48-1.488 0-2.384-.72-2.384-2.208v-4.976h-1.152v-1.008h1.152v-1.696l1.312-.208v1.904h2.4v1.008h-2.4v4.848c0 .88.48 1.232 1.168 1.232.528 0 .864-.128 1.312-.416zm6.416-5.664h-1.168v-1.008h1.168v-.912c0-1.744 1.168-2.832 2.704-2.832.576 0 1.04.144 1.472.368l-.304 1.104c-.352-.272-.64-.384-1.136-.384-.928 0-1.424.656-1.424 1.776v.88h2.048v1.008h-2.048v6.992h-1.312zm9.168-1.152-.08 1.376c-.144-.032-.416-.048-.64-.048-1.264 0-2.192 1.024-2.192 2.768v4.048h-1.312v-8h1.04l.176 2.048c.32-1.424 1.52-2.464 3.008-2.192zm8.208 4.144c0 2.688-1.456 4.192-3.584 4.192s-3.584-1.504-3.584-4.192 1.456-4.192 3.584-4.192 3.584 1.504 3.584 4.192zm-1.328 0c0-2.064-.784-3.168-2.256-3.168s-2.256 1.104-2.256 3.168.784 3.168 2.256 3.168 2.256-1.104 2.256-3.168zm9.472-2.512c.448-1.04 1.328-1.68 2.48-1.68 1.44 0 2.464.864 2.464 2.496v5.696h-1.312v-5.36c0-1.024-.432-1.68-1.552-1.68-.992 0-1.904.672-1.904 2.384v4.656h-1.312v-5.36c0-1.024-.448-1.68-1.552-1.68-1.008 0-1.904.688-1.904 2.4v4.64h-1.312v-8h.976l.16 1.552c.384-1.12 1.344-1.744 2.48-1.744s1.984.624 2.288 1.68zm17.952 6.512-2.88-4.384h-.032l-2.896 4.384h-1.472l3.664-5.488-3.424-5.2h1.536l2.64 4.128h.032l2.656-4.128h1.488l-3.44 5.168 3.68 5.52zm6.192-.848c.96 0 1.648-.448 1.888-1.456l1.136.32c-.368 1.552-1.6 2.176-3.024 2.176-2.192 0-3.568-1.456-3.568-4.16 0-2.608 1.408-4.224 3.568-4.224 2 0 3.104 1.456 3.104 3.36 0 .464-.08.864-.16 1.072h-5.248c.064 1.792.864 2.912 2.304 2.912zm-2.272-3.872h4.064c.016-.144.016-.304.016-.416 0-1.12-.64-2.048-1.84-2.048-1.28 0-2.064.912-2.24 2.464zm11.824-3.424-.08 1.376c-.144-.032-.416-.048-.64-.048-1.264 0-2.192 1.024-2.192 2.768v4.048h-1.312v-8h1.04l.176 2.048c.32-1.424 1.52-2.464 3.008-2.192zm8.208 4.144c0 2.688-1.456 4.192-3.584 4.192s-3.584-1.504-3.584-4.192 1.456-4.192 3.584-4.192 3.584 1.504 3.584 4.192zm-1.328 0c0-2.064-.784-3.168-2.256-3.168s-2.256 1.104-2.256 3.168.784 3.168 2.256 3.168 2.256-1.104 2.256-3.168z"/></defs><g fill="none"><rect fill="url(#a)" height="43" rx="4" width="222"/><use fill="#000" xlink:href="#b"/><use fill="#fff" xlink:href="#b"/><g transform="translate(9 5)"><path d="m16.4995319 0c-9.11353873 0-16.4995319 7.38765603-16.4995319 16.5 0 9.1115118 7.38599317 16.5 16.4995319 16.5 9.110834 0 16.5004681-7.3884882 16.5004681-16.5 0-9.11234397-7.3896341-16.5-16.5004681-16.5" fill="#fff"/><path d="m16.8210417 13.1529405c-.5917606-.3667099-1.2823572-.5604607-1.9972182-.5604607-.7887004 0-1.5396445.2313595-2.1716716.669108-.9878365.6847018-1.5775054 1.8030753-1.5775054 2.9919777 0 .2984232.037861.5947061.1124324.8804911.3796556 1.4476786 1.6564696 2.5426103 3.1772881 2.7245384.1470512.0171227.2943115.0258878.4375975.0258878.3046657 0 .601069-.0378125.9057347-.1150682.396076-.0928496.7734306-.2491956 1.1219188-.4645536.329244-.2079178.6324455-.4880972.9513352-.8788603l.0209177-.0210976c.1061571-.1291332.1555228-.2951617.1353372-.4553807-.0180937-.1434021-.0884817-.2672355-.1980902-.3484661-.1039608-.0780711-.2277933-.1210816-.3485928-.1210816-.1177665 0-.2907555.0415836-.4472196.2403285l-.0122369.0158996c-.0516666.0671656-.1051112.1365735-.1666091.2054717-.2107455.230748-.452972.4208297-.719463.5648434-.3815381.1982353-.7937206.3002577-1.2242061.3033153-1.3523268-.0144727-2.180457-.8917023-2.5040532-1.7064547-.0508299-.1466635-.0871221-.2805871-.1104453-.4047262-.0004183-.0126381-.0013596-.0257859-.0021963-.0387298l5.2357952-.0009173c.3636535-.0075421.6683192-.1369811.8577286-.3643657.1714203-.2058794.2358467-.4751533.181147-.7590019-.2228777-1.0285815-.7961262-1.8525067-1.6577247-2.3826971zm-4.5758429 2.4481301c.2985996-1.1411018 1.350758-1.9376104 2.5596942-1.9376104 1.2152115 0 2.2624542.7944702 2.5623089 1.9376104zm13.6366416-.3005635c-.5269159 0-.9556233.4167528-.9556233.9289033 0 .5123543.4287074.9291071.9556233.9291071.52587 0 .9537408-.4167528.9537408-.9291071 0-.5121505-.4278708-.9289033-.9537408-.9289033zm-3.4273588-2.1263671c0-.2910849-.2441091-.5278462-.5434408-.5278462l-.1530127-.0021403c-.4644766 0-.9036429.1387138-1.2735718.4017705-.0708063-.2130138-.2779957-.362735-.511646-.362735-.3011097 0-.5384206.2300346-.5403032.5238713l.001778 6.0813915c.0019872.28976.2439.5254001.5394665.5254001.2973446 0 .5393619-.2357421.5393619-.5256039v-3.7400741c0-1.2117327.1070984-1.7182775 1.1844626-1.8481242.0893184-.0103959.1852259-.0110074.2095949-.0110074.3171118-.0112113.5473106-.2276904.5473106-.5149023zm-14.20832125 3.0552704 2.79407655-2.7315709c.1021828-.0977418.1585559-.2291173.1585559-.3698695 0-.2905753-.2436907-.5270308-.5431271-.5270308-.1449594 0-.2816563.0559543-.3847803.1573652l-2.7942858 2.7178117-2.80537212-2.7229077c-.10228736-.0981494-.2378338-.1522692-.3818519-.1522692-.29797208 0-.54030318.2364555-.54030318.5270308 0 .141058.05783733.2748796.16284399.3766981l2.79606375 2.7226019-2.79188022 2.7259653c-.10772595.1001879-.16702752.2347229-.16702752.3786346 0 .2904734.2423311.526929.54030318.526929.14182174 0 .27736819-.0538141.38206108-.1520654l2.80244365-2.7287172 2.79031139 2.7159771c.1069938.1071185.2459917.1661304.391474.1661304.2994364 0 .5431271-.2369651.5431271-.5282539 0-.1391214-.0562685-.2709046-.1583467-.3713982zm17.63568005-3.646715c-2.0639456 0-3.7431109 1.6359257-3.7431109 3.646715 0 2.0102796 1.6791653 3.6457977 3.7431109 3.6457977 2.0628997 0 3.7412283-1.6355181 3.7412283-3.6457977 0-2.0107893-1.6783286-3.646715-3.7412283-3.646715zm0 6.2017596c-1.4469792 0-2.6241206-1.1461978-2.6241206-2.5550446 0-1.4104776 1.1771414-2.5580004 2.6241206-2.5580004 1.4454104 0 2.6212967 1.1475228 2.6212967 2.5580004 0 1.4088468-1.1758863 2.5550446-2.6212967 2.5550446z" fill="#13b5ea"/></g></g></svg>